<svg xmlns="http://www.w3.org/2000/svg" viewBox="0 0 32 32"><g data-name="Layer 5" fill="#000000" class="color000 svgShape"><path fill="#5233ff" d="M27.94,16.77l-.77,5A5,5,0,0,1,22.23,26H7.82A2.72,2.72,0,0,0,8,25V11a.61.61,0,0,0,0-.14,3.38,3.38,0,0,0,1.6-1l4.08-4.76a3,3,0,0,1,5.08,3.13l-.61,1.43a1,1,0,0,0,.09.94,1,1,0,0,0,.83.45H23a5,5,0,0,1,4.94,5.76Z" class="color5233ff svgShape"/><path fill="#ff64c8" d="M8,11V25a2.72,2.72,0,0,1-.18,1A3,3,0,0,1,5,28a1,1,0,0,1,0-2,1,1,0,0,0,1-1V11a1,1,0,0,0-1-1A1,1,0,0,1,5,8a3,3,0,0,1,3,2.86A.61.61,0,0,1,8,11Z" class="colorff64c8 svgShape"/></g></svg>