<svg xmlns="http://www.w3.org/2000/svg" viewBox="0 0 32 32"><path fill="#ff64c8" d="M16 2a5 5 0 0 0-5 5v.1a4.71 4.71 0 0 1 1-.1h1a3 3 0 0 1 6 0h1a4.71 4.71 0 0 1 1 .1V7a5 5 0 0 0-5-5zm-3 26v1a1 1 0 0 1-2 0v-1.1a4.71 4.71 0 0 0 1 .1zm8-.1V29a1 1 0 0 1-2 0v-1h1a4.71 4.71 0 0 0 1-.1z" class="colorff64c8 svgShape"/><path fill="#5233ff" d="M21 7.1a4.71 4.71 0 0 0-1-.1h-8a4.71 4.71 0 0 0-1 .1A5 5 0 0 0 7 12v11a5 5 0 0 0 4 4.9 4.71 4.71 0 0 0 1 .1h8a4.71 4.71 0 0 0 1-.1 5 5 0 0 0 4-4.9V12a5 5 0 0 0-4-4.9ZM14 22a1 1 0 0 1-2 0v-9a1 1 0 0 1 2 0Zm4 0v-9a1 1 0 0 1 2 0v9a1 1 0 0 1-2 0Z" class="color5233ff svgShape"/></svg>