<svg xmlns="http://www.w3.org/2000/svg" data-name="Layer 2" viewBox="0 0 32 32"><path fill="#5233ff" d="M23,14H9a5,5,0,0,0-5,5v6a5,5,0,0,0,5,5H23a5,5,0,0,0,5-5V19A5,5,0,0,0,23,14ZM16,26a4,4,0,1,1,4-4A4,4,0,0,1,16,26Z" class="color5233ff svgShape"/><circle cx="16" cy="22" r="2" fill="#ff64c8" class="colorff64c8 svgShape"/><path fill="#ff64c8" d="M16,2a1,1,0,0,0-1,1V8.59L12.46,6.05a1,1,0,0,0-1.41,1.41l4.24,4.25a1,1,0,0,0,.32.21,1,1,0,0,0,.78,0,1,1,0,0,0,.32-.21L21,7.46a1,1,0,0,0-1.41-1.41L17,8.59V3A1,1,0,0,0,16,2Z" class="colorff64c8 svgShape"/></svg>