<svg xmlns="http://www.w3.org/2000/svg" data-name="Layer 2" viewBox="0 0 32 32"><circle cx="23.5" cy="8.5" r="6.5" fill="#ff64c8" class="colorff64c8 svgShape"/><path fill="#ff64c8" d="M8,15V25a2.9,2.9,0,0,1-.23,1.14A3,3,0,0,1,5,28a1,1,0,0,1,0-2,1,1,0,0,0,1-1V15a1,1,0,0,0-1-1,1,1,0,0,1,0-2,3,3,0,0,1,3,3Z" class="colorff64c8 svgShape"/><path fill="#5233ff" d="M28,22.73a3.91,3.91,0,0,1-3,3.79l-4.18,1.05a9,9,0,0,1-2.18.27,8.33,8.33,0,0,1-1.49-.13L7.77,26.14A2.9,2.9,0,0,0,8,25V15.13l.72-.48a3,3,0,0,1,2.35-.44l6.55,1.46a3,3,0,0,1,2.38,3,3.07,3.07,0,0,1-.22,1.13A3.05,3.05,0,0,1,17,21.69l-.36,0h-.08L12.2,21,12,21a1,1,0,0,0-.2,2l4.44.64a5.81,5.81,0,0,0,.72.05,5,5,0,0,0,3.3-1.24,4.78,4.78,0,0,0,.85-.95A4.87,4.87,0,0,0,22,19.23l1.18-.3A3.92,3.92,0,0,1,28,22.73Z" class="color5233ff svgShape"/></svg>