<svg xmlns="http://www.w3.org/2000/svg" data-name="Layer 2" viewBox="0 0 32 32"><path fill="#5233ff" d="M23.07,13.94a9.62,9.62,0,0,0-2.32-1.73,7.37,7.37,0,0,0-.69-.34,9.94,9.94,0,0,0-1.47-.53h0l-.48-.11c-.35-.07-.69-.12-1-.16h0l-.47,0H16.4a5,5,0,0,0-.77,0h-.22l-.37,0-.14,0a8,8,0,0,0-1,.15l-.47.11h0a10.55,10.55,0,0,0-1.46.52c-.24.11-.48.22-.7.34A10,10,0,0,0,6,21v3a5,5,0,0,0,5,5H21a5,5,0,0,0,5-5V21A9.86,9.86,0,0,0,23.07,13.94ZM15.5,19h1A2.5,2.5,0,0,1,17,24V24a1,1,0,0,1-2,0H14a1,1,0,0,1,0-2h2.5a.5.5,0,0,0,0-1h-1a2.5,2.5,0,0,1-.5-4.95V16a1,1,0,0,1,2,0h1a1,1,0,0,1,0,2H15.5a.5.5,0,0,0,0,1Z" class="color5233ff svgShape"/><path fill="#ff64c8" d="M21.46,7.61l-.39,2.52L20.88,10a11.36,11.36,0,0,0-1.72-.62A12.09,12.09,0,0,0,16,9a12.4,12.4,0,0,0-3.16.42,11.84,11.84,0,0,0-1.7.62l-.21.1-.39-2.53a3,3,0,0,1,4.08-3.24l1,.4a1,1,0,0,0,.74,0l1-.4a3,3,0,0,1,4.08,3.24Z" class="colorff64c8 svgShape"/></svg>