<svg xmlns="http://www.w3.org/2000/svg" data-name="Layer 2" viewBox="0 0 32 32"><path fill="#5233ff" d="M23,14H9a5,5,0,0,0-5,5v6a5,5,0,0,0,5,5H23a5,5,0,0,0,5-5V19A5,5,0,0,0,23,14ZM16,26a4,4,0,1,1,4-4A4,4,0,0,1,16,26Z" class="color5233ff svgShape"/><circle cx="16" cy="22" r="2" fill="#ff64c8" class="colorff64c8 svgShape"/><path fill="#ff64c8" d="M16.71,2.29a1,1,0,0,0-1.42,0L11.05,6.54A1,1,0,0,0,12.46,8L15,5.41V11a1,1,0,0,0,2,0V5.41L19.54,8a1,1,0,0,0,.7.29A1,1,0,0,0,21,8a1,1,0,0,0,0-1.41Z" class="colorff64c8 svgShape"/></svg>