<svg xmlns="http://www.w3.org/2000/svg" viewBox="0 0 32 32"><path fill="#5233ff" d="M29.71 13.87 28.24 9a7 7 0 0 0-6.7-5H7a5 5 0 0 0-5 5v11a5 5 0 0 0 4.11 4.92 4 4 0 0 0 7.76.08h4.26a4 4 0 0 0 7.76-.08A5 5 0 0 0 30 20v-4.12a7.18 7.18 0 0 0-.29-2.01ZM4 14V9a3 3 0 0 1 3-3h2v8Zm7.73 11a2 2 0 1 1 .27-1 2 2 0 0 1-.27 1ZM17 14h-6V6h6Zm6.73 11a2 2 0 1 1-3.46-2 2 2 0 0 1 .73-.73 2 2 0 0 1 2 0 2 2 0 0 1 .73.73 2 2 0 0 1 0 2ZM19 14V6h2.54a5 5 0 0 1 4.78 3.56L27.66 14Zm9 6h-1a1 1 0 0 1 0-2h1Z" class="color5233ff svgShape"/></svg>