<svg xmlns="http://www.w3.org/2000/svg" viewBox="0 0 32 32"><path fill="#ff64c8" d="M20.24 2h-8a3 3 0 0 0-3 3V6.17a3 3 0 0 0 .88 2.12l.83.83a3 3 0 0 0 2.12.88h6.34a3 3 0 0 0 2.12-.88l.83-.83a3 3 0 0 0 .88-2.12V5A3 3 0 0 0 20.24 2zM16.31 16.29A1 1 0 0 0 16 17a1 1 0 0 0 1 1h6.05l-.61-2H17A.94.94 0 0 0 16.31 16.29z" class="colorff64c8 svgShape"/><path fill="#5233ff" d="M23.29,23.49h0L18.59,29A3,3,0,0,1,16.32,30h-.16A3,3,0,0,1,13.89,29l-4.7-5.46a3,3,0,0,1-.58-2.83l2.75-9a4.92,4.92,0,0,0,1.71.3h6.34a4.92,4.92,0,0,0,1.71-.3l.7,2.3H17a3,3,0,0,0-3,3,3,3,0,0,0,3,3h6.67l.2.66A3.06,3.06,0,0,1,23.29,23.49Z" class="color5233ff svgShape"/></svg>